<svg fill="none" height="123" viewBox="0 0 246 123" width="246" xmlns="http://www.w3.org/2000/svg"><g fill="#23344b"><path d="m52.0179 60.9643 2.9227 8.9951h9.458l-7.6517 5.5593 2.9227 8.9951-7.6517-5.5593-7.6517 5.5593 2.9226-8.9951-7.6517-5.5593h9.4581z"/><path d="m85.2858 60.9642 2.9227 8.9952h9.458l-7.6517 5.5592 2.9227 8.9952-7.6517-5.5593-7.6517 5.5593 2.9227-8.9952-7.6517-5.5592h9.458z"/><path d="m118.554 60.9642 2.922 8.9952h9.458l-7.651 5.5592 2.922 8.9952-7.651-5.5593-7.652 5.5593 2.923-8.9952-7.652-5.5592h9.458z"/><path d="m151.821 60.9642 2.923 8.9952h9.458l-7.652 5.5592 2.923 8.9952-7.652-5.5593-7.651 5.5593 2.922-8.9952-7.651-5.5592h9.458z"/><path d="m185.089 60.9642 2.923 8.9952h9.458l-7.652 5.5592 2.923 8.9952-7.652-5.5593-7.651 5.5593 2.922-8.9952-7.651-5.5592h9.458z"/><path d="m68.9602 6.72293c.6497-.75988 1.0674-1.55457 1.0674-2.39566 0-1.40955-1.166-2.30285-2.5929-2.30285-1.3284 0-2.4305.85849-2.6393 2.30285l-1.9432-.46985c.3712-2.36666 2.3028-3.85742 4.5709-3.85742 2.5465 0 4.5709 1.73439 4.5709 4.30987 0 1.40955-.6497 2.69149-1.5894 3.77621-1.8794 2.18682-1.9258 2.26802-3.956 4.66372h5.5918v2.007h-9.0142v-.8585z"/><path d="m63.061 24.5947.0174-7.3262h15.8937c.1624 1.0209.2437 2.0766.2437 3.1265 0 11.085-9.0258 20.105-20.105 20.105-11.085.0174-20.1108-9.0026-20.1108-20.0876 0-11.08499 9.0258-20.104967 20.105-20.104967v7.094167c-7.1754 0-13.0108 5.8354-13.0108 13.0108s5.8354 13.0108 13.0108 13.0108c5.702 0 10.5803-3.695 12.3321-8.8285zm31.0276-5.0582c0-5.296.3248-7.4538 1.2007-8.7473 1.1021-1.61841 3.2251-2.5117 5.9977-2.5117 2.448 0 4.49.71347 5.575 1.9954.823.9049 1.165 2.1694 1.165 4.1649v1.2007h-4.489c-.064-2.2681-.128-2.6741-.453-3.1614-.354-.551-1.038-.8932-1.862-.8932-.893 0-1.618.3886-1.9255.9745-.4524.9049-.5858 2.5754-.5858 6.9491 0 3.6138.1624 5.7194.4524 6.6127.261.7425 1.0039 1.166 1.9959 1.166 1.751 0 2.233-.8933 2.384-4.2287h4.472c-.035 2.8191-.197 3.9676-.795 5.0697-.824 1.5894-2.999 2.4769-6.125 2.4769-3.6431 0-5.8473-1.3457-6.5782-3.9386-.2842-1.0499-.4292-3.5964-.4292-7.129zm16.5144-10.91677h6.949c3.335 0 3.939.12762 5.105 1.06732 1.038.85845 1.554 2.26805 1.554 4.35625 0 1.7518-.354 3.0976-1.038 4.0025-.586.7946-1.294 1.1369-2.819 1.4733 2.9.3538 3.904 1.717 3.938 5.3656 0 .5859.064 1.7808.128 3.2715.064 1.0384.099 1.2298.354 2.1405h-4.78c-.197-1.4096-.197-1.4444-.197-4.1011 0-2.6102-.197-3.9038-.714-4.4897-.353-.3886-.742-.4872-1.896-.4872h-2.17v9.0896h-4.426zm6.236 9.39697c2.024 0 2.755-.8584 2.755-3.1265 0-1.2007-.325-2.1694-.859-2.6393-.388-.3248-.678-.3886-1.78-.3886h-1.961v6.1544zm10.191 1.4096c0-5.0581.227-6.8041 1.102-8.3297 1.039-1.862 3.191-2.8191 6.254-2.8191 3.387 0 5.684 1.26453 6.577 3.6428.453 1.1659.65 3.4514.65 7.6162 0 4.5535-.226 6.7055-.858 7.9411-1.039 2.0592-3.255 3.1613-6.335 3.1613s-5.203-.9397-6.27-2.8191c-.876-1.5082-1.12-3.3063-1.12-8.3935zm7.292 7.8715c1.345 0 2.14-.6497 2.413-1.9259.162-.8236.29-3.6427.29-6.6765 0-3.2541-.163-5.1683-.487-5.9456-.29-.7135-1.137-1.1659-2.205-1.1659-1.229 0-2.088.551-2.332 1.4907-.226.9049-.353 3.1614-.353 6.6127 0 2.8655.098 4.7449.261 5.6556.243 1.3052 1.032 1.9549 2.413 1.9549zm8.747-18.67807h4.519l1.473 7.90627c.516 2.8655.65 5.4758.893 10.4643.905-6.6417 1.201-8.4921 1.619-10.4643l1.717-7.90627h5.07l1.618 7.90627c.742 3.6138.905 6.0616 1.137 10.4643.29-3.6776.586-6.3691 1.293-10.4643l1.41-7.90627h3.968l-4.374 21.69437h-4.907l-2.048-10.0815c-.354-1.7518-.795-5.847-.893-8.0687-.65 4.8783-.679 5.5744-1.201 8.0687l-2.106 10.0757h-5.023zm26.654 0h6.062c3.515 0 4.588.19722 5.684.97451 1.375 1.00346 2.059 2.75526 2.349 6.18926.099 1.3458.163 3.0627.163 4.5883 0 3.9038-.273 5.818-.905 7.0942-.905 1.833-2.999 2.8655-5.685 2.8655h-7.645zm6.468 18.27197c1.554 0 2.413-.3538 2.72-1.1659.325-.8585.424-2.1056.424-5.6556 0-3.8748-.128-5.5744-.488-6.6417-.325-.9049-1.2-1.4096-2.546-1.4096h-2.025v14.8728zm-88.6804-26.8162918h-1.4443v40.0358918h1.4443z"/><path d="m67.93 113.83c.52 0 .9833-.087 1.39-.26.4133-.173.76-.417 1.04-.73s.4933-.693.64-1.14c.1533-.447.23-.947.23-1.5v-8.66h2.69v8.66c0 .86-.14 1.657-.42 2.39-.2733.727-.67 1.357-1.19 1.89-.5133.527-1.14.94-1.88 1.24-.74.293-1.5733.44-2.5.44-.9333 0-1.77-.147-2.51-.44-.74-.3-1.37-.713-1.89-1.24-.5133-.533-.91-1.163-1.19-1.89-.2733-.733-.41-1.53-.41-2.39v-8.66h2.69v8.65c0 .553.0733 1.053.22 1.5.1533.447.37.83.65 1.15.2867.313.6333.557 1.04.73.4133.173.88.26 1.4.26zm14.4641-6.09c-.0667.107-.1367.183-.21.23-.0734.04-.1667.06-.28.06-.12 0-.25-.033-.39-.1-.1334-.067-.29-.14-.47-.22-.18-.087-.3867-.163-.62-.23-.2267-.067-.4967-.1-.81-.1-.4867 0-.87.103-1.15.31-.2734.207-.41.477-.41.81 0 .22.07.407.21.56.1466.147.3366.277.57.39.24.113.51.217.81.31.3.087.6033.183.91.29.3133.107.62.23.92.37.3.133.5666.307.8.52.24.207.43.457.57.75.1466.293.22.647.22 1.06 0 .493-.09.95-.27 1.37-.1734.413-.4334.773-.78 1.08-.3467.3-.7767.537-1.29.71-.5067.167-1.0934.25-1.76.25-.3534 0-.7-.033-1.04-.1-.3334-.06-.6567-.147-.97-.26-.3067-.113-.5934-.247-.86-.4-.26-.153-.49-.32-.69-.5l.57-.94c.0733-.113.16-.2.26-.26s.2266-.09.38-.09c.1533 0 .2966.043.43.13.14.087.3.18.48.28s.39.193.63.28c.2466.087.5566.13.93.13.2933 0 .5433-.033.75-.1.2133-.073.3866-.167.52-.28.14-.113.24-.243.3-.39.0666-.153.1-.31.1-.47 0-.24-.0734-.437-.22-.59-.14-.153-.33-.287-.57-.4-.2334-.113-.5034-.213-.81-.3-.3-.093-.61-.193-.93-.3-.3134-.107-.6234-.23-.93-.37-.3-.147-.57-.33-.81-.55-.2334-.22-.4234-.49-.57-.81-.14-.32-.21-.707-.21-1.16 0-.42.0833-.82.25-1.2.1666-.38.41-.71.73-.99.3266-.287.73-.513 1.21-.68.4866-.173 1.0466-.26 1.68-.26.7066 0 1.35.117 1.93.35s1.0633.54 1.45.92zm9.139 1.95c0-.32-.0466-.62-.14-.9-.0866-.287-.22-.537-.4-.75s-.41-.38-.69-.5c-.2733-.127-.5933-.19-.96-.19-.7133 0-1.2766.203-1.69.61-.4066.407-.6666.983-.78 1.73zm-4.71 1.49c.04.527.1334.983.28 1.37.1467.38.34.697.58.95.24.247.5234.433.85.56.3334.12.7.18 1.1.18s.7434-.047 1.03-.14c.2934-.093.5467-.197.76-.31.22-.113.41-.217.57-.31.1667-.093.3267-.14.48-.14.2067 0 .36.077.46.23l.71.9c-.2733.32-.58.59-.92.81-.34.213-.6966.387-1.07.52-.3666.127-.7433.217-1.13.27-.38.053-.75.08-1.11.08-.7133 0-1.3766-.117-1.99-.35-.6133-.24-1.1466-.59-1.6-1.05-.4533-.467-.81-1.04-1.07-1.72-.26-.687-.39-1.48-.39-2.38 0-.7.1134-1.357.34-1.97.2267-.62.55-1.157.97-1.61.4267-.46.9434-.823 1.55-1.09.6134-.267 1.3034-.4 2.07-.4.6467 0 1.2434.103 1.79.31.5467.207 1.0167.51 1.41.91.3934.393.7.88.92 1.46.2267.573.34 1.23.34 1.97 0 .373-.04.627-.12.76-.08.127-.2333.19-.46.19zm11.1136-3.66c.32-.613.7-1.093 1.14-1.44.44-.353.9603-.53 1.5603-.53.473 0 .853.103 1.14.31l-.16 1.85c-.034.12-.084.207-.15.26-.06.047-.144.07-.25.07-.1 0-.25-.017-.45-.05-.194-.033-.384-.05-.57-.05-.2736 0-.5169.04-.7303.12-.2133.08-.4066.197-.58.35-.1666.147-.3166.327-.45.54-.1266.213-.2466.457-.36.73v6.32h-2.47v-10.26h1.45c.2534 0 .43.047.53.14.1.087.1667.247.2.48zm11.3523.22c-.067.107-.137.183-.21.23-.074.04-.167.06-.28.06-.12 0-.25-.033-.39-.1-.134-.067-.29-.14-.47-.22-.18-.087-.387-.163-.62-.23-.227-.067-.497-.1-.81-.1-.487 0-.87.103-1.15.31-.274.207-.41.477-.41.81 0 .22.07.407.21.56.146.147.336.277.57.39.24.113.51.217.81.31.3.087.603.183.91.29.313.107.62.23.92.37.3.133.566.307.8.52.24.207.43.457.57.75.146.293.22.647.22 1.06 0 .493-.09.95-.27 1.37-.174.413-.434.773-.78 1.08-.347.3-.777.537-1.29.71-.507.167-1.094.25-1.76.25-.354 0-.7-.033-1.04-.1-.334-.06-.657-.147-.97-.26-.307-.113-.594-.247-.86-.4-.26-.153-.49-.32-.69-.5l.57-.94c.073-.113.16-.2.26-.26s.226-.09.38-.09c.153 0 .296.043.43.13.14.087.3.18.48.28s.39.193.63.28c.246.087.556.13.93.13.293 0 .543-.033.75-.1.213-.073.386-.167.52-.28.14-.113.24-.243.3-.39.066-.153.1-.31.1-.47 0-.24-.074-.437-.22-.59-.14-.153-.33-.287-.57-.4-.234-.113-.504-.213-.81-.3-.3-.093-.61-.193-.93-.3-.314-.107-.624-.23-.93-.37-.3-.147-.57-.33-.81-.55-.234-.22-.424-.49-.57-.81-.14-.32-.21-.707-.21-1.16 0-.42.083-.82.25-1.2.166-.38.41-.71.73-.99.326-.287.73-.513 1.21-.68.486-.173 1.046-.26 1.68-.26.706 0 1.35.117 1.93.35s1.063.54 1.45.92zm16.252 6.04v2.22h-8.47v-14.46h2.69v12.24zm5.543-8.2c.76 0 1.45.123 2.07.37.627.247 1.16.597 1.6 1.05.447.453.79 1.007 1.03 1.66s.36 1.383.36 2.19c0 .813-.12 1.547-.36 2.2s-.583 1.21-1.03 1.67c-.44.46-.973.813-1.6 1.06-.62.247-1.31.37-2.07.37-.766 0-1.463-.123-2.09-.37-.626-.247-1.163-.6-1.61-1.06-.44-.46-.783-1.017-1.03-1.67-.24-.653-.36-1.387-.36-2.2 0-.807.12-1.537.36-2.19.247-.653.59-1.207 1.03-1.66.447-.453.984-.803 1.61-1.05.627-.247 1.324-.37 2.09-.37zm0 8.67c.854 0 1.484-.287 1.89-.86.414-.573.62-1.413.62-2.52s-.206-1.95-.62-2.53c-.406-.58-1.036-.87-1.89-.87-.866 0-1.51.293-1.93.88-.413.58-.62 1.42-.62 2.52s.207 1.94.62 2.52c.42.573 1.064.86 1.93.86zm15.882-8.51-4.07 10.26h-2.24l-4.07-10.26h2.04c.187 0 .34.043.46.13.127.087.21.197.25.33l1.98 5.48c.107.32.2.633.28.94s.15.613.21.92c.067-.307.14-.613.22-.92s.177-.62.29-.94l2.02-5.48c.047-.133.13-.243.25-.33s.263-.13.43-.13zm7.614 3.95c0-.32-.047-.62-.14-.9-.087-.287-.22-.537-.4-.75s-.41-.38-.69-.5c-.273-.127-.593-.19-.96-.19-.713 0-1.277.203-1.69.61-.407.407-.667.983-.78 1.73zm-4.71 1.49c.04.527.133.983.28 1.37.147.38.34.697.58.95.24.247.523.433.85.56.333.12.7.18 1.1.18s.743-.047 1.03-.14c.293-.093.547-.197.76-.31.22-.113.41-.217.57-.31.167-.093.327-.14.48-.14.207 0 .36.077.46.23l.71.9c-.273.32-.58.59-.92.81-.34.213-.697.387-1.07.52-.367.127-.743.217-1.13.27-.38.053-.75.08-1.11.08-.713 0-1.377-.117-1.99-.35-.613-.24-1.147-.59-1.6-1.05-.453-.467-.81-1.04-1.07-1.72-.26-.687-.39-1.48-.39-2.38 0-.7.113-1.357.34-1.97.227-.62.55-1.157.97-1.61.427-.46.943-.823 1.55-1.09.613-.267 1.303-.4 2.07-.4.647 0 1.243.103 1.79.31s1.017.51 1.41.91c.393.393.7.88.92 1.46.227.573.34 1.23.34 1.97 0 .373-.04.627-.12.76-.08.127-.233.19-.46.19zm19.857 2.65c.52 0 .983-.087 1.39-.26.413-.173.76-.417 1.04-.73s.493-.693.64-1.14c.153-.447.23-.947.23-1.5v-8.66h2.69v8.66c0 .86-.14 1.657-.42 2.39-.273.727-.67 1.357-1.19 1.89-.513.527-1.14.94-1.88 1.24-.74.293-1.573.44-2.5.44-.933 0-1.77-.147-2.51-.44-.74-.3-1.37-.713-1.89-1.24-.513-.533-.91-1.163-1.19-1.89-.273-.733-.41-1.53-.41-2.39v-8.66h2.69v8.65c0 .553.073 1.053.22 1.5.153.447.37.83.65 1.15.287.313.633.557 1.04.73.413.173.88.26 1.4.26zm14.464-6.09c-.067.107-.137.183-.21.23-.073.04-.167.06-.28.06-.12 0-.25-.033-.39-.1-.133-.067-.29-.14-.47-.22-.18-.087-.387-.163-.62-.23-.227-.067-.497-.1-.81-.1-.487 0-.87.103-1.15.31-.273.207-.41.477-.41.81 0 .22.07.407.21.56.147.147.337.277.57.39.24.113.51.217.81.31.3.087.603.183.91.29.313.107.62.23.92.37.3.133.567.307.8.52.24.207.43.457.57.75.147.293.22.647.22 1.06 0 .493-.09.95-.27 1.37-.173.413-.433.773-.78 1.08-.347.3-.777.537-1.29.71-.507.167-1.093.25-1.76.25-.353 0-.7-.033-1.04-.1-.333-.06-.657-.147-.97-.26-.307-.113-.593-.247-.86-.4-.26-.153-.49-.32-.69-.5l.57-.94c.073-.113.16-.2.26-.26s.227-.09.38-.09.297.043.43.13c.14.087.3.18.48.28s.39.193.63.28c.247.087.557.13.93.13.293 0 .543-.033.75-.1.213-.073.387-.167.52-.28.14-.113.24-.243.3-.39.067-.153.1-.31.1-.47 0-.24-.073-.437-.22-.59-.14-.153-.33-.287-.57-.4-.233-.113-.503-.213-.81-.3-.3-.093-.61-.193-.93-.3-.313-.107-.623-.23-.93-.37-.3-.147-.57-.33-.81-.55-.233-.22-.423-.49-.57-.81-.14-.32-.21-.707-.21-1.16 0-.42.083-.82.25-1.2s.41-.71.73-.99c.327-.287.73-.513 1.21-.68.487-.173 1.047-.26 1.68-.26.707 0 1.35.117 1.93.35s1.063.54 1.45.92z"/></g></svg>