<svg fill="none" height="121" viewBox="0 0 246 121" width="246" xmlns="http://www.w3.org/2000/svg"><g fill="#23344b"><path d="m73.7531 99.54v14.46h-2.7v-6.32h-6.79v6.32h-2.7v-14.46h2.7v6.22h6.79v-6.22zm5.2535 4.2v10.26h-2.48v-10.26zm.34-2.99c0 .213-.0434.413-.13.6-.0867.187-.2034.35-.35.49-.14.14-.3067.253-.5.34-.1934.08-.4.12-.62.12-.2134 0-.4167-.04-.61-.12-.1867-.087-.35-.2-.49-.34s-.2534-.303-.34-.49c-.08-.187-.12-.387-.12-.6 0-.22.04-.427.12-.62.0866-.1933.2-.36.34-.5s.3033-.25.49-.33c.1933-.0867.3966-.13.61-.13.22 0 .4266.0433.62.13.1933.08.36.19.5.33.1466.14.2633.3067.35.5.0866.193.13.4.13.62zm5.9281 7.87c.3067 0 .5733-.04.8-.12.2267-.087.4133-.203.56-.35.1533-.147.2667-.323.34-.53.08-.207.12-.433.12-.68 0-.507-.1533-.907-.46-1.2-.3-.3-.7533-.45-1.36-.45s-1.0633.15-1.37.45c-.3.293-.45.693-.45 1.2 0 .24.0367.463.11.67.08.207.1933.387.34.54.1533.147.3433.263.57.35.2333.08.5.12.8.12zm2.79 5.84c0-.2-.06-.363-.18-.49s-.2833-.223-.49-.29c-.2067-.073-.45-.127-.73-.16-.2733-.033-.5667-.057-.88-.07-.3067-.02-.6267-.037-.96-.05-.3267-.013-.6467-.04-.96-.08-.2733.153-.4967.333-.67.54-.1667.207-.25.447-.25.72 0 .18.0433.347.13.5.0933.16.2367.297.43.41.2.113.4567.2.77.26.3133.067.6967.1 1.15.1.46 0 .8567-.037 1.19-.11.3333-.067.6067-.163.82-.29.22-.12.38-.267.48-.44.1-.167.15-.35.15-.55zm2.46-10.37v.92c0 .293-.1767.473-.53.54l-.92.17c.14.353.21.74.21 1.16 0 .507-.1033.967-.31 1.38-.2.407-.48.753-.84 1.04s-.7867.51-1.28.67c-.4867.153-1.0133.23-1.58.23-.2 0-.3933-.01-.58-.03s-.37-.047-.55-.08c-.32.193-.48.41-.48.65 0 .207.0933.36.28.46.1933.093.4467.16.76.2s.67.067 1.07.08c.4.007.81.027 1.23.06s.83.093 1.23.18c.4.08.7567.21 1.07.39s.5633.427.75.74c.1933.307.29.703.29 1.19 0 .453-.1133.893-.34 1.32-.22.427-.5433.807-.97 1.14-.42.333-.94.6-1.56.8-.6133.207-1.3133.31-2.1.31-.7733 0-1.4467-.077-2.02-.23-.5733-.147-1.05-.347-1.43-.6-.38-.247-.6633-.533-.85-.86s-.28-.667-.28-1.02c0-.48.1433-.88.43-1.2.2933-.327.6933-.587 1.2-.78-.2733-.14-.49-.327-.65-.56s-.24-.54-.24-.92c0-.153.0267-.31.08-.47.06-.167.1433-.33.25-.49.1133-.16.2533-.31.42-.45.1667-.147.3633-.277.59-.39-.52-.28-.93-.653-1.23-1.12-.2933-.467-.44-1.013-.44-1.64 0-.507.1-.963.3-1.37.2067-.413.49-.763.85-1.05.3667-.293.7967-.517 1.29-.67.5-.153 1.0433-.23 1.63-.23.44 0 .8533.047 1.24.14.3867.087.74.217 1.06.39zm4.0364.75c.4-.373.84-.677 1.32-.91s1.0433-.35 1.69-.35c.56 0 1.0567.097 1.49.29.4333.187.7933.453 1.0799.8.293.34.513.75.66 1.23.153.473.23.997.23 1.57v6.53h-2.4699v-6.53c0-.627-.1433-1.11-.43-1.45-.2867-.347-.7233-.52-1.31-.52-.4267 0-.8267.097-1.2.29s-.7267.457-1.06.79v7.42h-2.47v-14.86h2.47zm15.4289 2.85c0-.32-.047-.62-.14-.9-.087-.287-.22-.537-.4-.75s-.41-.38-.69-.5c-.273-.127-.593-.19-.96-.19-.713 0-1.277.203-1.69.61-.407.407-.667.983-.78 1.73zm-4.71 1.49c.04.527.133.983.28 1.37.147.38.34.697.58.95.24.247.523.433.85.56.333.12.7.18 1.1.18s.743-.047 1.03-.14c.293-.093.547-.197.76-.31.22-.113.41-.217.57-.31.167-.093.327-.14.48-.14.207 0 .36.077.46.23l.71.9c-.273.32-.58.59-.92.81-.34.213-.697.387-1.07.52-.367.127-.743.217-1.13.27-.38.053-.75.08-1.11.08-.713 0-1.377-.117-1.99-.35-.613-.24-1.147-.59-1.6-1.05-.453-.467-.81-1.04-1.07-1.72-.26-.687-.39-1.48-.39-2.38 0-.7.113-1.357.34-1.97.227-.62.55-1.157.97-1.61.427-.46.943-.823 1.55-1.09.613-.267 1.303-.4 2.07-.4.647 0 1.243.103 1.79.31s1.017.51 1.41.91c.393.393.7.88.92 1.46.227.573.34 1.23.34 1.97 0 .373-.04.627-.12.76-.08.127-.233.19-.46.19zm15.044-3.44c-.067.107-.137.183-.21.23-.074.04-.167.06-.28.06-.12 0-.25-.033-.39-.1-.134-.067-.29-.14-.47-.22-.18-.087-.387-.163-.62-.23-.227-.067-.497-.1-.81-.1-.487 0-.87.103-1.15.31-.274.207-.41.477-.41.81 0 .22.07.407.21.56.146.147.336.277.57.39.24.113.51.217.81.31.3.087.603.183.91.29.313.107.62.23.92.37.3.133.566.307.8.52.24.207.43.457.57.75.146.293.22.647.22 1.06 0 .493-.09.95-.27 1.37-.174.413-.434.773-.78 1.08-.347.3-.777.537-1.29.71-.507.167-1.094.25-1.76.25-.354 0-.7-.033-1.04-.1-.334-.06-.657-.147-.97-.26-.307-.113-.594-.247-.86-.4-.26-.153-.49-.32-.69-.5l.57-.94c.073-.113.16-.2.26-.26s.226-.09.38-.09c.153 0 .296.043.43.13.14.087.3.18.48.28s.39.193.63.28c.246.087.556.13.93.13.293 0 .543-.033.75-.1.213-.073.386-.167.52-.28.14-.113.24-.243.3-.39.066-.153.1-.31.1-.47 0-.24-.074-.437-.22-.59-.14-.153-.33-.287-.57-.4-.234-.113-.504-.213-.81-.3-.3-.093-.61-.193-.93-.3-.314-.107-.624-.23-.93-.37-.3-.147-.57-.33-.81-.55-.234-.22-.424-.49-.57-.81-.14-.32-.21-.707-.21-1.16 0-.42.083-.82.25-1.2.166-.38.41-.71.73-.99.326-.287.73-.513 1.21-.68.486-.173 1.046-.26 1.68-.26.706 0 1.35.117 1.93.35s1.063.54 1.45.92zm5.949 8.42c-.894 0-1.58-.25-2.06-.75-.474-.507-.71-1.203-.71-2.09v-5.73h-1.05c-.134 0-.247-.043-.34-.13-.094-.087-.14-.217-.14-.39v-.98l1.65-.27.52-2.8c.033-.133.096-.237.19-.31.093-.073.213-.11.36-.11h1.28v3.23h2.74v1.76h-2.74v5.56c0 .32.076.57.23.75.16.18.376.27.65.27.153 0 .28-.017.38-.05.106-.04.196-.08.27-.12.08-.04.15-.077.21-.11.06-.04.12-.06.18-.06.073 0 .133.02.18.06.046.033.096.087.15.16l.74 1.2c-.36.3-.774.527-1.24.68-.467.153-.95.23-1.45.23zm13.645-7.74c.506 0 .946-.063 1.32-.19.38-.127.69-.3.93-.52.246-.227.43-.493.55-.8s.18-.643.18-1.01c0-.733-.244-1.297-.73-1.69-.48-.393-1.217-.59-2.21-.59h-1.72v4.8zm6.92 7.58h-2.43c-.46 0-.794-.18-1-.54l-3.04-4.63c-.114-.173-.24-.297-.38-.37-.134-.073-.334-.11-.6-.11h-1.15v5.65h-2.69v-14.46h4.41c.98 0 1.82.1033 2.52.31.706.2 1.283.483 1.73.85.453.367.786.807 1 1.32.213.507.32 1.067.32 1.68 0 .487-.074.947-.22 1.38-.14.433-.347.827-.62 1.18-.267.353-.6.663-1 .93-.394.267-.844.477-1.35.63.173.1.333.22.48.36.146.133.28.293.4.48zm6.435-4.38c-.714.033-1.314.097-1.8.19-.487.087-.877.2-1.17.34-.294.14-.504.303-.63.49-.127.187-.19.39-.19.61 0 .433.126.743.38.93.26.187.596.28 1.01.28.506 0 .943-.09 1.31-.27.373-.187.736-.467 1.09-.84zm-5.66-4.45c1.18-1.08 2.6-1.62 4.26-1.62.6 0 1.136.1 1.61.3.473.193.873.467 1.2.82.326.347.573.763.74 1.25.173.487.26 1.02.26 1.6v6.48h-1.12c-.234 0-.414-.033-.54-.1-.127-.073-.227-.217-.3-.43l-.22-.74c-.26.233-.514.44-.76.62-.247.173-.504.32-.77.44-.267.12-.554.21-.86.27-.3.067-.634.1-1 .1-.434 0-.834-.057-1.2-.17-.367-.12-.684-.297-.95-.53-.267-.233-.474-.523-.62-.87-.147-.347-.22-.75-.22-1.21 0-.26.043-.517.13-.77.086-.26.226-.507.42-.74.2-.233.456-.453.77-.66.313-.207.696-.387 1.15-.54.46-.153.993-.277 1.6-.37.606-.1 1.3-.16 2.08-.18v-.6c0-.687-.147-1.193-.44-1.52-.294-.333-.717-.5-1.27-.5-.4 0-.734.047-1 .14-.26.093-.49.2-.69.32-.2.113-.384.217-.55.31-.16.093-.34.14-.54.14-.174 0-.32-.043-.44-.13-.12-.093-.217-.2-.29-.32zm13.679 8.99c-.893 0-1.58-.25-2.06-.75-.473-.507-.71-1.203-.71-2.09v-5.73h-1.05c-.133 0-.246-.043-.34-.13-.093-.087-.14-.217-.14-.39v-.98l1.65-.27.52-2.8c.034-.133.097-.237.19-.31.094-.073.214-.11.36-.11h1.28v3.23h2.74v1.76h-2.74v5.56c0 .32.077.57.23.75.16.18.377.27.65.27.154 0 .28-.017.38-.05.107-.04.197-.08.27-.12.08-.04.15-.077.21-.11.06-.04.12-.06.18-.06.074 0 .134.02.18.06.047.033.097.087.15.16l.74 1.2c-.36.3-.773.527-1.24.68-.466.153-.95.23-1.45.23zm10.554-6.47c0-.32-.047-.62-.14-.9-.087-.287-.22-.537-.4-.75s-.41-.38-.69-.5c-.274-.127-.594-.19-.96-.19-.714 0-1.277.203-1.69.61-.407.407-.667.983-.78 1.73zm-4.71 1.49c.04.527.133.983.28 1.37.146.38.34.697.58.95.24.247.523.433.85.56.333.12.7.18 1.1.18s.743-.047 1.03-.14c.293-.093.546-.197.76-.31.22-.113.41-.217.57-.31.166-.093.326-.14.48-.14.206 0 .36.077.46.23l.71.9c-.274.32-.58.59-.92.81-.34.213-.697.387-1.07.52-.367.127-.744.217-1.13.27-.38.053-.75.08-1.11.08-.714 0-1.377-.117-1.99-.35-.614-.24-1.147-.59-1.6-1.05-.454-.467-.81-1.04-1.07-1.72-.26-.687-.39-1.48-.39-2.38 0-.7.113-1.357.34-1.97.226-.62.55-1.157.97-1.61.426-.46.943-.823 1.55-1.09.613-.267 1.303-.4 2.07-.4.646 0 1.243.103 1.79.31.546.207 1.016.51 1.41.91.393.393.7.88.92 1.46.226.573.34 1.23.34 1.97 0 .373-.04.627-.12.76-.08.127-.234.19-.46.19zm15.223-2.82c-.28-.34-.586-.58-.92-.72-.326-.14-.68-.21-1.06-.21-.373 0-.71.07-1.01.21s-.556.353-.77.64c-.213.28-.376.64-.49 1.08-.113.433-.17.947-.17 1.54 0 .6.047 1.11.14 1.53.1.413.24.753.42 1.02.18.26.4.45.66.57.26.113.55.17.87.17.514 0 .95-.107 1.31-.32s.7-.517 1.02-.91zm2.47-7.22v14.86h-1.51c-.326 0-.533-.15-.62-.45l-.21-.99c-.413.473-.89.857-1.43 1.15-.533.293-1.156.44-1.87.44-.56 0-1.073-.117-1.54-.35-.466-.233-.87-.57-1.21-1.01-.333-.447-.593-.997-.78-1.65-.18-.653-.27-1.4-.27-2.24 0-.76.104-1.467.31-2.12.207-.653.504-1.22.89-1.7.387-.48.85-.853 1.39-1.12.54-.273 1.147-.41 1.82-.41.574 0 1.064.09 1.47.27.407.18.77.423 1.09.73v-5.41z"/><path d="m57.0767 58.3268 2.882 8.8699h9.3263l-7.5451 5.4818 2.882 8.8699-7.5452-5.4819-7.5452 5.4819 2.882-8.8699-7.5451-5.4818h9.3263z"/><path d="m89.8815 58.3268 2.882 8.8699h9.3265l-7.5453 5.4818 2.882 8.8699-7.5452-5.4819-7.5451 5.4819 2.882-8.8699-7.5452-5.4818h9.3263z"/><path d="m122.686 58.3268 2.882 8.8699h9.327l-7.546 5.4818 2.882 8.8699-7.545-5.4819-7.545 5.4819 2.882-8.8699-7.545-5.4818h9.326z"/><path d="m155.491 58.3268 2.882 8.8699h9.326l-7.545 5.4818 2.882 8.8699-7.545-5.4819-7.546 5.4819 2.882-8.8699-7.545-5.4818h9.327z"/><path d="m188.295 58.3268 2.882 8.8699h9.327l-7.545 5.4818 2.882 8.8699-7.546-5.4819-7.545 5.4819 2.882-8.8699-7.545-5.4818h9.326z"/></g><path d="m36.7131 13.8737 15.6489.0031 9.5156.0016v-9.42698z" fill="#ff9d28"/><path d="m61.8776 4.45142v33.28208l11.8847-37.7335z" fill="#68c5ed"/><path d="m61.8775 13.8784-9.5156-.0016 9.5156 23.8567z" fill="#044d80"/><path d="m36.7131 13.8737 18.0891 6.1244-2.4402-6.1213z" fill="#e54747"/><path d="m94.3605 28.9724c-.138.138-.3679.3102-.6894.5169-.3221.207-.7411.4137-1.2581.6207-.517.2065-1.1493.3844-1.8957.5343-.7472.149-1.6028.2239-2.5679.2239-1.8614 0-3.4701-.2989-4.8257-.896-1.3561-.5972-2.4762-1.4308-3.3607-2.499-.8847-1.0686-1.5337-2.3322-1.9473-3.7917-.4136-1.4591-.6204-3.0617-.6204-4.8083 0-1.7459.224-3.3606.6721-4.8427.448-1.4822 1.1201-2.7628 2.0163-3.8433.8962-1.07973 2.0164-1.92434 3.3608-2.53348 1.3442-.60845 2.9238-.91336 4.7393-.91336.8962 0 1.7062.08068 2.4301.24125.7238.16091 1.3556.35064 1.8958.56874.5396.21867.9878.448 1.3443.68936.3559.24125.6259.44279.8101.60312.2067.1843.3845.4024.5342.65487.1492.25318.224.5289.224.8274 0 .4599-.1724.9192-.517 1.3787-.3446.4599-.7238.885-1.1376 1.2753-.2757-.2757-.5859-.5568-.9305-.8443-.3447-.2872-.7297-.5397-1.1547-.7584-.4254-.2181-.9081-.4018-1.4477-.5515-.5402-.1492-1.1433-.2241-1.8095-.2241-1.172 0-2.1542.2359-2.9471.7066-.7927.4713-1.4305 1.0858-1.913 1.8441-.4825.7584-.8272 1.6259-1.0341 2.6024-.2067.9769-.3101 1.9706-.3101 2.9815 0 1.0803.1034 2.1143.3101 3.102.2068.9882.5627 1.8616 1.0686 2.6196.5051.7582 1.166 1.3674 1.9819 1.8267.8153.4601 1.8321.6895 3.0504.6895.643 0 1.235-.0802 1.7751-.2411.5396-.1607 1.0168-.3562 1.4304-.5864.4136-.2292.7756-.4703 1.0857-.7234.3103-.2528.5688-.4708.7756-.6551.1379.1612.2984.3567.4825.5861.1852.2319.3578.4736.517.7239.1606.2531.2985.5057.4137.758.1147.2533.1722.4827.1722.6893 0 .2991-.0575.5517-.1722.7584-.1153.2069-.2991.4369-.5515.6895zm17.7625-2.6435c0 1.8264.266 3.1557.798 3.9879-.416.1615-.803.2772-1.162.3466-.358.0694-.734.1039-1.127.1039-.832 0-1.462-.1618-1.889-.4854-.428-.3233-.7-.7856-.815-1.387-.509.5322-1.179.9828-2.012 1.3528-.832.3691-1.849.5546-3.051.5546-.624 0-1.248-.0866-1.873-.2589-.624-.1736-1.1904-.4554-1.6988-.8466-.5088-.3921-.9247-.9164-1.2483-1.5733-.324-.6568-.4855-1.4574-.4855-2.402 0-1.1753.283-2.1319.8496-2.869.5663-.7377 1.2771-1.3194 2.133-1.7459.855-.426 1.78-.7192 2.774-.881.994-.1614 1.907-.2648 2.739-.3115.278-.0228.549-.0347.815-.0347h.746v-.6311c0-.8886-.238-1.5199-.711-1.8937-.474-.3739-1.243-.5613-2.306-.5613-.994 0-1.879.1619-2.653.4854-.775.324-1.532.6935-2.2712 1.1097-.324-.3929-.5843-.8262-.7803-1.3004-.1965-.4735-.2947-.8262-.2947-1.0576 0-.3234.1787-.6355.5375-.9363.3582-.3.8496-.5721 1.4737-.8148.624-.2428 1.341-.4389 2.15-.5895.809-.1501 1.664-.2254 2.566-.2254 1.248 0 2.306.1274 3.173.3815.867.2546 1.572.6474 2.115 1.1789.543.5321.93 1.1964 1.162 1.9939.231.7976.347 1.7284.347 2.7914v6.5188zm-4.438-4.0223h-.486c-.162 0-.324.012-.485.0348-.578.0466-1.151.1158-1.716.2078-.567.0928-1.07.2546-1.509.4857-.439.2312-.797.532-1.075.9014-.277.3701-.416.8443-.416 1.4219 0 .6474.185 1.1961.555 1.647.369.4509.993.6762 1.872.6762.439 0 .855-.0574 1.249-.1736.392-.1151.739-.2654 1.04-.4504.3-.185.537-.3871.711-.6071.173-.2194.26-.4215.26-.6066zm13.072-6.8312c.369-.4388.945-.8841 1.729-1.335.783-.4508 1.774-.6762 2.972-.6762.853 0 1.666.1446 2.438.4334.771.2893 1.457.7576 2.056 1.4044.6.6475 1.078 1.503 1.435 2.566.357 1.0637.536 2.37.536 3.9184 0 1.8031-.208 3.2888-.622 4.4559-.415 1.1678-.951 2.0925-1.607 2.7742-.657.682-1.389 1.1617-2.195 1.439-.807.2773-1.614.4162-2.42.4162-.669 0-1.251-.0752-1.746-.2253-.496-.1507-.916-.3177-1.262-.5029-.345-.1848-.61-.3694-.794-.5549-.185-.1847-.3-.3122-.346-.3816v8.5241h-4.716v-23.7815c.116-.0227.256-.046.419-.0692.14-.0227.303-.0402.49-.0521.186-.0114.407-.0173.663-.0173.769 0 1.421.1274 1.957.3815.535.2546.873.682 1.013 1.2829zm6.242 6.4149c0-.6934-.058-1.3403-.172-1.9417-.115-.6008-.305-1.121-.569-1.5603-.265-.439-.621-.7803-1.069-1.0231-.449-.2427-.994-.3639-1.638-.3639-.965 0-1.637.1852-2.017.5546-.379.3701-.569.7749-.569 1.2138v7.3514c.184.1852.511.4045.982.6588.472.2545 1.017.3812 1.638.3812 1.173 0 2.035-.4619 2.587-1.3868.551-.9245.827-2.2194.827-3.884zm8.564 5.9646c-.162-.4622-.266-.9479-.312-1.4566-.047-.5083-.07-1.0167-.07-1.5259v-16.08953c.162-.02269.335-.04596.521-.06934.161-.02269.334-.03994.52-.05198.184-.01134.369-.01725.554-.01725.37 0 .74.03473 1.11.10396.37.06945.705.20814 1.006.41605.3.20802.543.49152.728.84959.185.3586.277.8269.277 1.4043v2.4619h4.855v3.5025h-4.855v7.3946c0 1.6126.659 2.4186 1.977 2.4186.323 0 .629-.0517.919-.156.289-.104.549-.2194.78-.3466.231-.1271.433-.26.607-.3988.173-.1388.295-.2427.364-.312.347.5089.612.9494.797 1.3211.185.3722.278.7214.278 1.0477 0 .3037-.121.6014-.364.8929s-.584.5603-1.023.8051c-.44.2449-.971.4432-1.595.595-.624.1517-1.307.2277-2.046.2277-1.434 0-2.549-.2776-3.347-.8323-.797-.555-1.358-1.2833-1.681-2.1847zm21.133-.4509c.58 0 1.09-.0634 1.531-.1908.441-.1267.835-.2828 1.183-.4678.348-.1848.65-.3871.905-.6068.255-.2195.487-.4218.696-.6071.278.3466.568.792.87 1.3349.301.5437.452.9885.452 1.3351 0 .5087-.289.9711-.866 1.3871-.486.3701-1.174.688-2.064.9535-.89.2656-1.936.3988-3.138.3988-1.087 0-2.156-.1386-3.207-.4161-1.052-.2773-1.989-.7629-2.809-1.4565-.821-.6932-1.486-1.6236-1.994-2.7912-.509-1.1673-.763-2.6407-.763-4.4213 0-1.4565.225-2.7101.676-3.7623.451-1.0517 1.052-1.9244 1.804-2.6179.75-.6936 1.6-1.2018 2.548-1.5259.948-.3233 1.919-.4854 2.913-.4854 1.294 0 2.392.2027 3.294.6068.902.4047 1.635.9481 2.202 1.6299.566.6819.976 1.4621 1.231 2.3406.254.8787.381 1.8031.381 2.774v.4854c0 .1854-.006.3814-.017.5894-.012.2083-.023.4109-.035.6069-.012.1969-.029.3527-.051.4682h-10.23c.093 1.2715.487 2.329 1.183 3.1731.695.844 1.797 1.2654 3.305 1.2654zm1.58-7.0393c0-1.1096-.215-2.0112-.645-2.7047-.43-.6934-1.204-1.0404-2.319-1.0404-.954 0-1.715.3296-2.285.9884-.57.6589-.854 1.5778-.854 2.7566h6.103zm12.472-4.8016c.139-.2063.324-.4355.555-.6881.231-.2524.514-.4817.85-.688.334-.2064.704-.3788 1.109-.5163.404-.1376.838-.2064 1.301-.2064.277 0 .572.0233.884.0688.312.046.601.1322.866.2579.266.1263.48.298.642.5158.162.2179.243.4872.243.8079 0 .5044-.128 1.0837-.382 1.7376-.254.6545-.508 1.2126-.762 1.6748-.394-.3236-.787-.5721-1.179-.7455-.394-.1733-.856-.2602-1.388-.2602-.716 0-1.317.2088-1.802.6258-.486.4173-.729.9157-.729 1.4953v11.2254h-4.716v-16.9183c.116-.0227.254-.046.416-.0692.139-.0227.301-.0402.486-.0521.185-.0114.404-.0173.659-.0173.739 0 1.381.1434 1.924.4297.543.286.885.727 1.023 1.3224zm13.408 0c.139-.2063.324-.4355.555-.6881.231-.2524.514-.4817.85-.688.335-.2064.704-.3788 1.109-.5163.404-.1376.838-.2064 1.301-.2064.277 0 .572.0233.884.0688.312.046.601.1322.867.2579.265.1263.479.298.641.5158.162.2179.243.4872.243.8079 0 .5044-.128 1.0837-.381 1.7376-.255.6545-.509 1.2126-.763 1.6748-.394-.3236-.787-.5721-1.179-.7455-.394-.1733-.856-.2602-1.387-.2602-.717 0-1.318.2088-1.804.6258-.485.4173-.728.9157-.728 1.4953v11.2254h-4.716v-16.9183c.116-.0227.254-.046.417-.0692.138-.0227.3-.0402.485-.0521.185-.0114.404-.0173.659-.0173.739 0 1.381.1434 1.924.4297.543.286.884.727 1.023 1.3224zm22.505 10.7658c0 1.8264.266 3.1557.798 3.9879-.416.1615-.804.2772-1.162.3466s-.734.1039-1.127.1039c-.832 0-1.462-.1618-1.89-.4854-.428-.3233-.699-.7856-.815-1.387-.508.5322-1.179.9828-2.011 1.3528-.832.3691-1.85.5546-3.051.5546-.625 0-1.249-.0866-1.873-.2589-.624-.1736-1.191-.4554-1.699-.8466-.509-.3921-.925-.9164-1.248-1.5733-.324-.6568-.486-1.4574-.486-2.402 0-1.1753.283-2.1319.85-2.869.566-.7377 1.277-1.3194 2.133-1.7459.854-.426 1.779-.7192 2.774-.881.993-.1614 1.907-.2648 2.739-.3115.277-.0228.549-.0347.815-.0347h.745v-.6311c0-.8886-.237-1.5199-.711-1.8937-.474-.3739-1.242-.5613-2.306-.5613-.994 0-1.878.1619-2.652.4854-.775.324-1.532.6935-2.272 1.1097-.323-.3929-.584-.8262-.78-1.3004-.196-.4735-.294-.8262-.294-1.0576 0-.3234.178-.6355.537-.9363.358-.3.85-.5721 1.474-.8148.624-.2428 1.34-.4389 2.15-.5895.809-.1501 1.664-.2254 2.566-.2254 1.248 0 2.306.1274 3.173.3815.866.2546 1.571.6474 2.115 1.1789.543.5321.93 1.1964 1.162 1.9939.23.7976.346 1.7284.346 2.7914zm-4.438-4.0223h-.486c-.162 0-.324.012-.485.0348-.578.0466-1.151.1158-1.717.2078-.567.0928-1.069.2546-1.508.4857-.439.2312-.798.532-1.075.9014-.277.3701-.416.8443-.416 1.4219 0 .6474.185 1.1961.555 1.647.369.4509.993.6762 1.872.6762.439 0 .855-.0574 1.249-.1736.392-.1151.739-.2654 1.04-.4504.3-.185.537-.3871.711-.6071.173-.2194.26-.4215.26-.6066z" fill="#23344b"/></svg>