<svg viewBox="0 0 36 36" xmlns="http://www.w3.org/2000/svg" xmlns:xlink="http://www.w3.org/1999/xlink"><linearGradient id="a" gradientUnits="userSpaceOnUse" x1="18.54" x2="28.52" y1="28" y2="28"><stop offset="0" stop-color="#7e55bd"/><stop offset="1" stop-color="#2da2c5"/></linearGradient><path d="m32 8a1 1 0 0 1 -.94 1h-30.12a1 1 0 0 1 -.94-1v-7a1 1 0 0 1 .94-1h30.12a1 1 0 0 1 .94 1z" fill="#3f51b5"/><path d="m0 5h32v27h-32z" fill="#bbdefb"/><g fill="#1976d2"><path d="m18.85 25h-8.85v2h6.73a24 24 0 0 1 2.12-2z"/><path d="m26 21.28v-.28h-16v2h11.7a14.91 14.91 0 0 1 4.3-1.72z"/><path d="m10 17h16v2h-16z"/><path d="m10 13h16v2h-16z"/><path d="m10 9h16v2h-16z"/><path d="m6 9h2v2h-2z"/><path d="m6 13h2v2h-2z"/><path d="m6 25h2v2h-2z"/><path d="m6 17h2v2h-2z"/><path d="m6 21h2v2h-2z"/></g><path d="m13.55 28s4.47-6 10-6 10 6 10 6-4.47 6-10 6-10-6-10-6z" fill="#fff"/><path d="m23.53 22c5.51 0 10 6 10 6s-4.47 6-10 6-10-6-10-6 4.47-6 10-6m0-2c-6.44 0-11.37 6.53-11.58 6.8l-.89 1.2.89 1.2c.21.28 5.14 6.8 11.58 6.8s11.37-6.53 11.58-6.8l.89-1.2-.89-1.2c-.21-.27-5.11-6.8-11.58-6.8z" fill="#ffa363"/><ellipse cx="23.53" cy="28" fill="url(#a)" rx="4.99" ry="5"/><circle cx="23.53" cy="28" fill="#263238" r="2"/></svg>