<svg viewBox="0 0 36 34" xmlns="http://www.w3.org/2000/svg"><g fill="#3ecf8e"><path d="m1 30h8a1 1 0 0 1 1 1v1.95a1.05 1.05 0 0 1 -1.05 1.05h-7.95a1 1 0 0 1 -1-1v-2a1 1 0 0 1 1-1z"/><path d="m1 24h8a1 1 0 0 1 1 1v1.95a1.05 1.05 0 0 1 -1.05 1.05h-7.95a1 1 0 0 1 -1-1v-2a1 1 0 0 1 1-1z"/><path d="m1 18h8a1 1 0 0 1 1 1v1.95a1.05 1.05 0 0 1 -1.05 1.05h-7.95a1 1 0 0 1 -1-1v-2a1 1 0 0 1 1-1z"/><path d="m1 12h8a1 1 0 0 1 1 1v1.95a1.05 1.05 0 0 1 -1.05 1.05h-7.95a1 1 0 0 1 -1-1v-2a1 1 0 0 1 1-1z"/><path d="m1 6h8a1 1 0 0 1 1 1v1.95a1.05 1.05 0 0 1 -1.05 1.05h-7.95a1 1 0 0 1 -1-1v-2a1 1 0 0 1 1-1z"/><path d="m1 0h8a1 1 0 0 1 1 1v1.95a1.05 1.05 0 0 1 -1.05 1.05h-7.95a1 1 0 0 1 -1-1v-2a1 1 0 0 1 1-1z"/></g><path d="m14 30h8a1 1 0 0 1 1 1v1.95a1.05 1.05 0 0 1 -1.05 1.05h-7.95a1 1 0 0 1 -1-1v-2a1 1 0 0 1 1-1z" fill="#ffa363"/><path d="m14 24h8a1 1 0 0 1 1 1v1.95a1.05 1.05 0 0 1 -1.05 1.05h-7.95a1 1 0 0 1 -1-1v-2a1 1 0 0 1 1-1z" fill="#ffa363"/><path d="m27 30h8a1 1 0 0 1 1 1v1.95a1.05 1.05 0 0 1 -1.05 1.05h-7.95a1 1 0 0 1 -1-1v-2a1 1 0 0 1 1-1z" fill="#eb6f3f"/></svg>