<svg height="16" viewBox="0 0 44 16" width="44" xmlns="http://www.w3.org/2000/svg"><path d="m43.9096774 10.3886613-3.4413233-9.42544218c-.2790122-.76219467-1.1176018-1.15294334-1.8738854-.87227206-.7568012.28119296-1.1440019 1.12633695-.8660249 1.88853161l2.2952508 6.28536711c-7.3770003-4.43022389-13.9174816-6.03860593-19.4542436-6.03651916-6.5057989-.00104338-11.56580713 2.20728654-14.97244799 4.40987784-3.41181734 2.20467807-5.19873791 4.40205244-5.26862038 4.48552344-.50884789.6291627-.41618891 1.555691.20757682 2.0700811.27072985.2227632.59788333.3312755.92244856.3312755.42291834 0 .84324844-.1846796 1.13157832-.5409965.14028258-.1700721 1.82315592-2.1452049 4.87261973-4.0546043 3.05412264-1.91044276 7.44843574-3.75828226 13.10684494-3.75880395 4.9865023.00156508 10.9969121 1.43100614 18.0182883 5.65724775l-6.1113512 2.324146c-.7536953.2869316-1.1346842 1.1362491-.8510131 1.896357.2215533.5889923.7769895.9515695 1.3671081.9515695.1708238 0 .3447535-.0313016.5150596-.09547l9.547498-3.632554c.7505895-.2853665 1.1315783-1.1258153.8546367-1.8833147z" fill="#7e55bd"/></svg>