<svg viewBox="0 0 36 36" xmlns="http://www.w3.org/2000/svg"><path d="m6 32v-28a4 4 0 0 1 4-4h16a4 4 0 0 1 4 4v28a4 4 0 0 1 -4 4h-16a4 4 0 0 1 -4-4" fill="#546e7a"/><path d="m26 4h-16a1 1 0 0 0 -1 1v25a1 1 0 0 0 1 1h16a1 1 0 0 0 1-1v-25a1 1 0 0 0 -1-1" fill="#2da2c5"/><circle cx="18" cy="2" fill="#b0bec5" r="1"/><path d="m1 16h34v2h-34z" fill="#37474f"/><path d="m30 12v2h-8.08c-.37 1.14-2 2-3.92 2s-3.55-.86-3.92-2h-9.08v-2h-2v20a4 4 0 0 0 4 4h22a4 4 0 0 0 4-4v-20z" fill="#ffa363"/><path d="m0 15h2v4h-2z" fill="#546e7a"/><path d="m34 15h2v4h-2z" fill="#546e7a"/><path d="m30 31a2 2 0 0 1 -2 2h-20a2 2 0 0 1 -2-2v-7h24z" fill="#37474f"/><path d="m30 24h-24v-2a1 1 0 0 1 1-1h22a1 1 0 0 1 1 1z" fill="#ffecb3"/><g fill="#b0bec5"><circle cx="9" cy="27" r="1"/><circle cx="9" cy="30" r="1"/><circle cx="27" cy="27" r="1"/><circle cx="27" cy="30" r="1"/><circle cx="12" cy="27" r="1"/><circle cx="15" cy="27" r="1"/><circle cx="18" cy="27" r="1"/><circle cx="21" cy="27" r="1"/><circle cx="24" cy="27" r="1"/><path d="m25 30a1 1 0 0 1 -1 1h-12a1 1 0 0 1 -1-1 1 1 0 0 1 1-1h12a1 1 0 0 1 1 1z"/></g><path d="m30 12v1h-9a1 1 0 0 1 0 .28c0 .95-1.34 1.72-3 1.72s-3-.77-3-1.72a1 1 0 0 1 0-.28h-9v-1h-2v1a2 2 0 0 0 2 2h5c0 2.21 3.13 4 7 4s7-1.79 7-4h5a2 2 0 0 0 2-2v-1z" fill="#37474f"/></svg>