<svg viewBox="0 0 36 34.44" xmlns="http://www.w3.org/2000/svg" xmlns:xlink="http://www.w3.org/1999/xlink"><linearGradient id="a" gradientUnits="userSpaceOnUse" x1="9" x2="27" y1="17.24" y2="17.24"><stop offset="0" stop-color="#7e55bd"/><stop offset="1" stop-color="#2da2c5"/></linearGradient><path d="m0 17.3a24.54 24.54 0 0 1 18-8.24 24.54 24.54 0 0 1 18 8.24s-8.64 11.39-18 11.39-18-11.39-18-11.39z" fill="#fafafa"/><circle cx="18" cy="17.24" fill="url(#a)" r="9"/><path d="m0 17.3s6.62 13.85 18 13.85 18-13.85 18-13.85-8.64 9.79-18 9.79-18-9.79-18-9.79z" fill="#ffa363"/><path d="m0 17.3a26.84 26.84 0 0 1 18-6.61 26.84 26.84 0 0 1 18 6.61s-5.47-12.3-18-12.3-18 12.3-18 12.3z" fill="#ffa363"/><circle cx="18" cy="17.24" fill="#263238" r="4.09"/><circle cx="21.27" cy="13.97" fill="#fff" r="1.64"/><path d="m16.34-5.5h3.27v45.43h-3.27z" fill="#eb6f3f" transform="matrix(.70710678 -.70710678 .70710678 .70710678 -6.91 17.76)"/></svg>