<svg viewBox="0 0 36 30" xmlns="http://www.w3.org/2000/svg"><path d="m0 28h36v2h-36z" fill="#8d6e63"/><path d="m17 2h2v4h-2z" fill="#6d4c41"/><path d="m32.57 23h-29.14c0 3-3.43 5-3.43 5h36s-3.43-2-3.43-5z" fill="#6d4c41"/><g fill="#90a4ae"><path d="m21 9h-6l1-4h4z"/><path d="m22 3v-2a1 1 0 0 0 -1-1h-6a1 1 0 0 0 -1 1v2z"/><path d="m3 21h30v2h-30z"/></g><path d="m3 21s.88-13 15-13 15 13 15 13z" fill="#cfd8dc"/><path d="m35 7a7 7 0 1 1 -7-7 7 7 0 0 1 7 7" fill="#3ecf8e"/><path d="m27 3h2v8h-2z" fill="#fff"/><path d="m24 6h8v2h-8z" fill="#fff"/></svg>