<svg viewBox="0 0 36 32" xmlns="http://www.w3.org/2000/svg" xmlns:xlink="http://www.w3.org/1999/xlink"><linearGradient id="a" gradientUnits="userSpaceOnUse" x1="7.61" x2="28.39" y1="10.75" y2="10.75"><stop offset="0" stop-color="#2da2c5"/><stop offset="1" stop-color="#3ecf8e"/></linearGradient><path d="m33 1h-30a2 2 0 0 0 -2 2v3.17a2 2 0 0 0 .59 1.41l11.41 11.42c1 1 1 1 1 2v8a2 2 0 0 0 3.2 1.6l4-3a2 2 0 0 0 .8-1.6v-5c0-1 0-1 1-2l11.41-11.41a2 2 0 0 0 .59-1.42v-3.17a2 2 0 0 0 -2-2z" fill="none" stroke="#7e55bd" stroke-linecap="round" stroke-miterlimit="10" stroke-width="2"/><path d="m26 5h-16c-4 0-2 2-1 3l7 7c2 2 2 2 4 0l7-7c1-1 3-3-1-3z" fill="url(#a)"/></svg>