<svg viewBox="0 0 93.79 29.99" xmlns="http://www.w3.org/2000/svg"><path d="m93.68 12.12c-.7-1.53-2.41-.17-3.06.58s-1.27 1.55-1.86 2.36a10.59 10.59 0 0 1 .24-1.92c.11-.73.18-1.22-.74-1.22-1.15 0-1.32 1-1.54 2-.29 1.23-.51 2.48-.67 3.74-1.48 1.34-5.37 4.24-6.85 1.59a7.05 7.05 0 0 0 4.31-3.1 3 3 0 0 0 -1.39-4.46c-4.09-1.53-6.47 3.94-6 7.16-.55.4-2.18 1.68-2.78.77s-.27-2.52.07-3.47c1.09-2.64 2.42-5.17 3.25-7.91.62-2.06 1.61-5.64.06-7.52-2-2.44-4.72 1.86-5.39 3.39a21.3 21.3 0 0 0 -1.69 8 7 7 0 0 0 -6 6.79c-1.48 1-4 2.41-5.15.33a7.05 7.05 0 0 0 4.31-3.1 3 3 0 0 0 -1.39-4.46c-4.09-1.53-6.44 3.91-6 7.13a7.62 7.62 0 0 1 -3.52 1.49c-1.31.1-1.55-.89-2.09-1.86a5 5 0 0 0 4-1.37c1.15-1.21 1.64-3.24.45-4.59a3.56 3.56 0 0 0 -4.49-.47 6.33 6.33 0 0 0 -2.64 4.21 5.64 5.64 0 0 1 -2.32-.55 34.62 34.62 0 0 0 4.53-7.66c.8-1.87 2.49-6.1-.46-7-2.72-.87-4.53 2.25-5.39 4.31a38.31 38.31 0 0 0 -2.22 8.69c-.47-.2-2.16-1.37-1.91.09a4.4 4.4 0 0 0 1.58 2.34c0 .33-.07.71-.12 1.07-1 .86-2.3 2.15-3.68 2.4-1.64.3-1-3-.71-3.75 1.09-2.64 2.42-5.17 3.25-7.91.62-2.06 1.61-5.64.06-7.52-2-2.44-4.72 1.86-5.39 3.39a21.3 21.3 0 0 0 -1.69 8 7 7 0 0 0 -6 7.14c-.36.33-1.49 1.36-2 .78s-.09-2.39 0-3.15c.35-1.65 1.35-4.2-.65-5.05-4.08-1.69-7.52 3-8.12 6.54-1.49 1.14-4.67 3.22-6 .88a7.18 7.18 0 0 0 4.12-2.86 3.09 3.09 0 0 0 -1-4.58c-4-1.94-6.57 3.46-6.3 6.65a11.13 11.13 0 0 1 -2.15 1.28c-.4.16-.86.38-1.12-.09a2.82 2.82 0 0 1 -.32-1.33v-.17c.3-2 1.57-3.73 2.51-5.47a35.28 35.28 0 0 0 2.95-6.31c.43-1.53 1.43-4.88-.26-6.03-1.85-1.29-4 1.73-4.79 3a25.57 25.57 0 0 0 -3.52 12.61c0 2 .29 4.52 1.65 6.13 1.53 1.82 4.44-.15 5.94-1.11 2 3.06 6 1.77 8.47.09 1.28 2.84 4.71 1.77 6.34-.13.34.86.89 1.81 1.9 1.95a4.08 4.08 0 0 0 3-1.27c1.65 2.48 4.78.67 6.37-.88a3 3 0 0 0 2.95 2.07 9.45 9.45 0 0 0 3.81-2 18.56 18.56 0 0 0 .29 6.39c.3 1.1.88 2.42 2.1 2.74a2.85 2.85 0 0 0 3-1.37 6.24 6.24 0 0 0 .53-5.81c-.54-1.4-1.66-3.09-3.24-3.41a12 12 0 0 1 .2-1.46c.08-.35.18-.25.47-.19a21.89 21.89 0 0 0 3.09.55 4.6 4.6 0 0 0 3 4.4c2.19.69 4.51-.35 6.3-1.55 1.92 2.74 5.56 1.78 8 .27 1.56 2.78 4.82 1 6.52-.62a3.12 3.12 0 0 0 2.64 2.1c1.29 0 2.66-1 3.67-1.7 2.2 3.07 6.38 1.43 8.83-.39 0 .73.12 1.71.92 2a1.22 1.22 0 0 0 1.65-.94c.43-1.47.13-3.06 1-4.43a9.75 9.75 0 0 1 2.95-3.07c.36-.24 1.08-.35 1.28-.75a1.88 1.88 0 0 0 .09-1.44zm-43.53 3a2 2 0 0 1 1.85-1.37.74.74 0 0 1 .81.75c-.15 1.67-1.7 2-3 2a4.82 4.82 0 0 1 .36-1.39zm-46.95-4.12a21.6 21.6 0 0 1 1.34-5.1 8.72 8.72 0 0 1 1.14-2.13 1.63 1.63 0 0 1 .72-.61c.43-.13.31.56.31.8-.32 3.3-2.08 6.57-3.71 9.41a17.12 17.12 0 0 1 .2-2.37zm6.44 5.62a4 4 0 0 1 .72-2.22c.4-.5 1.52-1.09 2-.34.86 1.52-1.32 3.18-2.69 3.18q-.06-.24-.03-.59zm12.1.58a5.7 5.7 0 0 1 -1.08 2.8c-.8 1-1.79.49-1.88-.69-.14-1.94 1.33-5.55 3.67-5.55zm10.54 1.88c-.38.64-.94 1.31-1.75 1.22-1-.11-1.14-1-1-1.81a6.17 6.17 0 0 1 3.21-4.63 31.84 31.84 0 0 0 .18 4 8.12 8.12 0 0 1 -.6 1.23zm3.27-5.19v-.09a41 41 0 0 1 .33-5.21 26.55 26.55 0 0 1 .62-3.41c.17-.66.46-2 1.23-2.3 1.23-.41.21 4.35.09 4.81a42.43 42.43 0 0 1 -2.28 6.23zm9.18 12.11c-.1.37-.5 1.66-1.14 1.26-.45-.28-.43-1.28-.47-1.74a30.28 30.28 0 0 1 -.05-4.63 4.54 4.54 0 0 1 1.66 5.11zm-.31-14.27a23.17 23.17 0 0 1 1.14-4.89c.21-.61 1.2-4.36 2.51-3.22 1.11 1-.55 3.48-1 4.39-.9 1.72-1.87 3.41-2.78 5.13q.04-.61.13-1.38zm13.78 4.92a4 4 0 0 1 .72-2.22c.4-.5 1.52-1.09 2-.34.86 1.52-1.32 3.18-2.69 3.18q-.05-.27-.03-.62zm11.06 2.46c-.38.64-.94 1.31-1.75 1.22-1-.11-1.14-1-1-1.81a6.17 6.17 0 0 1 3.21-4.63c0 1.11.06 2.81.18 4a8.12 8.12 0 0 1 -.6 1.23zm3.27-5.19v-.12a41 41 0 0 1 .33-5.21 26.55 26.55 0 0 1 .62-3.41c.17-.66.46-2 1.23-2.3 1.23-.41.21 4.35.09 4.81a42.43 42.43 0 0 1 -2.27 6.23zm6.47 2.73a4 4 0 0 1 .72-2.22c.4-.5 1.52-1.09 2-.34.86 1.52-1.32 3.18-2.69 3.18q-.1-.27-.03-.62z" fill="#2da2c5"/></svg>