<svg xmlns="http://www.w3.org/2000/svg" width="818.582" height="187.688"><g class="currentLayer"><g fill="none" fill-rule="evenodd"><path d="M-93.617-92.908H913.09v374.76H-93.618z"/><g fill="#26292C"><path d="M40.57 94.146c0-22.163 12.008-30.054 23.24-30.054 13.787 0 23.048 11.99 23.048 29.847 0 20.367-11.782 29.465-23.435 29.465-15.713 0-22.853-15.184-22.853-29.26zm28.777-56.128c-16.39 0-25.88 7.434-30.457 12.564-.55-4.423-3.436-10.163-14.71-10.163H-.314v25.868H9.725c1.702 0 2.25.544 2.25 2.26v118.126h29.187V142.34c0-1.196-.022-2.316-.054-3.315 4.555 4.216 13.268 10.042 26.87 10.042 28.53 0 48.487-22.825 48.487-55.52 0-33.215-18.944-55.53-47.118-55.53"/><path d="M155.66 118.74V56.147c0-10.575-5.05-15.727-15.4-15.727h-26.084v25.867h10.047c1.692 0 2.24.555 2.24 2.26v62.38c0 10.737 4.89 15.726 15.37 15.726h26.115v-25.64H157.9c-1.615 0-2.24-.653-2.24-2.27"/><path d="M225.958 123.405c-15.67 0-22.844-15.184-22.844-29.26 0-22.162 12.01-30.053 23.253-30.053 13.786 0 23.047 11.99 23.047 29.847 0 20.367-11.77 29.465-23.456 29.465m5.954-85.387c-16.41 0-25.88 7.434-30.477 12.564-.54-4.423-3.414-10.163-14.69-10.163h-24.502v25.868h10.038c1.692 0 2.24.544 2.24 2.26v118.126h29.21V142.34c0-1.196-.032-2.316-.064-3.315 4.534 4.216 13.278 10.042 26.87 10.042 28.54 0 48.475-22.825 48.475-55.52 0-33.215-18.932-55.53-47.095-55.53m80.006 40.198c3.167-10.423 11.082-16.337 22.026-16.337 8.788 0 15.55 6.75 16.745 16.337h-38.77zm22.026-40.195c-31.45 0-53.442 22.837-53.442 55.53 0 32.163 23.727 55.52 56.425 55.52 25.717 0 41.43-15.368 42.096-16.02l1.175-1.174-12.717-21.293-1.886 1.805c-.13.098-11.663 10.824-26.903 10.824-14.625 0-25.33-9.01-27.86-23.14h69.216l.162-1.934c.054-.262.624-6.53.624-9.598 0-30.216-18.846-50.52-46.892-50.52zm101 85.385c-13.882 0-22.864-11.728-22.864-29.857 0-17.63 9.35-29.455 23.264-29.455 15.777 0 22.853 14.683 22.853 29.26 0 22.172-12.02 30.053-23.253 30.053m52.05-4.664V16.15C486.997 5.573 481.88.42 471.392.42h-26.085v25.88h10.05c1.69 0 2.238.543 2.238 2.26v18.542c-4.307-3.924-12.72-9.086-27.204-9.086-28.323 0-48.087 22.835-48.087 55.53 0 33.216 18.934 55.52 47.108 55.52 16.102 0 25.386-7.543 29.92-12.805.59 4.588 3.532 10.39 14.452 10.39h25.288v-25.64h-9.834c-1.614 0-2.24-.65-2.24-2.27m77.026-79.727c-12.148 0-23.327 7.076-29.962 18.348V54.94c0-9.63-5.266-14.522-15.605-14.522H493.36v25.87h10.04c1.69 0 2.25.543 2.25 2.26v78.106h29.188v-42.51c0-5.598.71-10.988 2.088-15.977 4.395-14.663 16.07-19.88 25.514-19.88 3.35 0 5.783.358 5.826.37l2.435.37V39.744l-1.777-.304c-.086-.02-2.562-.424-4.9-.424m48.222 79.725V56.147c0-10.575-5.03-15.727-15.38-15.727H573.27v25.867h7.537c1.703 0 2.24.555 2.24 2.26v62.38c0 10.737 4.902 15.726 15.402 15.726h26.095v-25.64h-10.06c-1.615 0-2.24-.653-2.24-2.27"/><path d="M722.438 40.42h-15.573c-9.1 0-13.98 3.185-16.866 11l-19.03 53.638c-.658 1.99-1.272 4.22-1.8 6.36-.55-2.14-1.205-4.403-1.927-6.39l-19.03-53.618c-2.92-7.902-7.637-10.988-16.856-10.988h-16.564V66.29h4.297c2.284 0 3.017.78 3.554 2.216l29.456 78.15h32.826l29.456-78.15c.538-1.435 1.293-2.217 3.575-2.217h4.48V40.42zm28.24 37.795c3.2-10.423 11.083-16.337 22.015-16.337 8.81 0 15.562 6.75 16.758 16.337H750.68zm22.015-40.195c-31.438 0-53.42 22.837-53.42 55.53 0 32.163 23.705 55.52 56.403 55.52 25.73 0 41.453-15.368 42.11-16.02l1.184-1.174-12.686-21.293-1.94 1.805c-.096.098-11.695 10.824-26.88 10.824-14.637 0-25.342-9.01-27.873-23.14h69.24l.16-1.934c.034-.262.627-6.53.627-9.598 0-30.216-18.858-50.52-46.924-50.52zM153.663.43h-26.02v27.66h26.02zm456.6 0H584.23v27.66h26.032z"/></g></g></g></svg>